<?xml version="1.0" encoding="utf-8"?>
<!-- Generator: Adobe Illustrator 25.0.0, SVG Export Plug-In . SVG Version: 6.00 Build 0)  -->
<svg version="1.1" id="Capa_1" xmlns="http://www.w3.org/2000/svg" xmlns:xlink="http://www.w3.org/1999/xlink" x="0px" y="0px"
	 viewBox="0 0 1000 1000" style="enable-background:new 0 0 1000 1000;" xml:space="preserve">
<style type="text/css">
	.st0{fill:#94BEC1;}
	.st1{fill:#2C9BBA;}
</style>
<g>
	<path class="st0" d="M613.4,346c73.4,0,146.8,0,220.2,0c17.1,0,20.9-4.1,19.2-21c-2.5-25.3-8.8-49-25-69.7
		c-23.5-30.2-54.9-41.6-91.7-41.6c-129.3,0-258.6,0-387.8,0c-19.7,0-19.9-0.1-19.9-19.5c0-19.4-0.1-38.8,0-58.2
		c0.1-13.7,1.9-15.7,16-15.8c60.8-0.1,121.7-0.1,182.5-0.1c69.2,0,138.4,0.8,207.6-0.2c55.4-0.8,104.4,14.6,144.5,53.3
		c31.1,30,53.1,66,58.4,109.5c3.4,28.2,4.5,56.7,4.6,85.1c0.5,116,0.2,231.9,0.2,347.9c0,17.3-0.5,17.8-18,17.8
		c-101.5,0-203,0.3-304.6,0c-76.8-0.3-153.5-0.6-230.3-2.3c-75.1-1.6-130.8-36.8-167.6-102c-26.4-46.9-30.8-96.8-15.5-147.7
		c10.8-36,32.2-65.9,61.1-90.4c38.8-32.9,84.3-45.3,134.1-45.3C471.9,346,542.6,346,613.4,346z M610.3,441.6
		c-73.4,0-146.8-0.2-220.2,0.1c-34.8,0.1-62.4,14.2-83.8,42.6c-39.5,52.3-11.8,119.9,35.9,143.6c22,10.9,45.6,11.9,68.9,11.9
		c140.7,0.5,281.4,0.3,422.1,0.3c17.6,0,19.7-2,19.8-19.6c0.1-52.9,0.1-105.7,0.1-158.6c0-18.2-2.1-20.3-20.4-20.3
		C758.6,441.6,684.4,441.6,610.3,441.6z"/>
	<path class="st1" d="M538.9,879.9c-77.9,0-155.9,0.5-233.8-0.1c-76.1-0.7-137.9-31.9-186-90.6C78.7,740,59.1,683.3,59,619.9
		c-0.2-109.1-0.1-218.2-0.1-327.3c0-9.5-0.4-19-0.9-28.5c-0.4-7.6,2.9-11.8,10.4-11.8c25.5-0.2,50.9-0.1,76.4-0.1
		c7,0,10.3,3.8,10.3,10.8c0,3.8,0.1,7.6,0.1,11.4c0,115.6-0.5,231.1,0.2,346.7c0.5,82.7,65,159.2,157.3,158.8
		c157.8-0.7,315.5-0.1,473.3-0.1c18.1,0,19.2,1,19.2,19.5c0,21.7,0.1,43.3,0,65c0,14.9-1,15.8-16.5,15.8
		C705.4,880,622.2,880,538.9,879.9C538.9,880,538.9,879.9,538.9,879.9z"/>
	<path class="st1" d="M390.9,610.6c-40.7,0.1-69.5-28.1-69.6-68.1c-0.1-39.3,29.2-69.2,67.7-69.2c40.1,0,69.6,29,69.6,68.4
		C458.7,581.2,429.8,610.6,390.9,610.6z"/>
</g>
</svg>
